<?xml version="1.0" encoding="UTF-8"?>
<svg id="Layer_2" data-name="Layer 2" xmlns="http://www.w3.org/2000/svg" viewBox="0 0 62.06 21.74">
  <defs>
    <style>
      .cls-1 {
        stroke: #a42431;
        stroke-width: 1.75px;
      }

      .cls-1, .cls-2, .cls-3 {
        fill: none;
        stroke-linecap: round;
        stroke-miterlimit: 10;
      }

      .cls-4 {
        fill: #231f20;
      }

      .cls-2 {
        stroke: #f7941d;
      }

      .cls-2, .cls-3 {
        stroke-width: 2px;
      }

      .cls-3 {
        stroke: #f15a29;
      }
    </style>
  </defs>
  <g id="object_text_expand_onlhy" data-name="object text expand onlhy">
    <g>
      <path class="cls-4" d="M4.36,19.07c-1.21,0-2.23-.46-3.08-1.36-.85-.91-1.27-2.01-1.27-3.31s.43-2.4,1.27-3.32c.85-.91,1.88-1.37,3.09-1.37s2.16.42,2.98,1.26v-.97h1.94v8.78h-1.94v-.96c-.82.83-1.82,1.25-2.98,1.25ZM4.71,11.62c-.74,0-1.35.27-1.85.8-.49.53-.74,1.19-.74,1.98s.25,1.44.74,1.97c.49.53,1.11.8,1.84.8s1.35-.27,1.85-.8c.5-.53.75-1.19.75-1.98s-.25-1.45-.74-1.98c-.49-.53-1.11-.8-1.85-.8Z"/>
      <path class="cls-4" d="M10.76,10h1.94v.93c.82-.82,1.8-1.23,2.94-1.22,1.21,0,2.23.46,3.08,1.37.84.91,1.27,2.02,1.27,3.32s-.42,2.4-1.27,3.31-1.87,1.36-3.08,1.36c-1.05,0-1.97-.35-2.76-1.04v3.68h-2.11v-11.71ZM15.3,17.17c.73,0,1.34-.27,1.83-.8.49-.53.74-1.19.74-1.97s-.24-1.45-.73-1.98-1.1-.8-1.82-.8-1.33.27-1.82.8c-.49.53-.73,1.19-.73,1.98s.24,1.45.73,1.98c.49.53,1.09.8,1.82.8Z"/>
      <path class="cls-4" d="M21.21,10h1.94v.93c.82-.82,1.8-1.23,2.94-1.22,1.21,0,2.23.46,3.08,1.37.85.91,1.27,2.02,1.27,3.32s-.42,2.4-1.27,3.31-1.87,1.36-3.08,1.36c-1.05,0-1.97-.35-2.76-1.04v3.68h-2.11v-11.71ZM25.75,17.17c.73,0,1.34-.27,1.83-.8.49-.53.74-1.19.74-1.97s-.24-1.45-.73-1.98-1.1-.8-1.82-.8-1.33.27-1.82.8c-.49.53-.73,1.19-.73,1.98s.24,1.45.73,1.98c.49.53,1.09.8,1.81.8Z"/>
      <path class="cls-4" d="M31.77,7.07h2.11v11.71h-2.11V7.07Z"/>
      <path class="cls-4" d="M35.56,7.07h2.11v1.93h-2.11v-1.93ZM35.56,10h2.11v8.78h-2.11v-8.78Z"/>
      <path class="cls-4" d="M41.62,11.86v6.92h-2.11v-6.92h-.75v-1.85h.75c.04-.94.31-1.69.8-2.26.53-.6,1.27-.9,2.21-.9h.42v2.06h-.11c-.43,0-.74.08-.93.25-.19.17-.29.45-.29.83v.02h1.24v1.85h-1.24Z"/>
      <path class="cls-4" d="M46.89,21.74h-2.23l1.63-3.75h0s-3.21-7.99-3.21-7.99h2.38l2,5.73h0l2.15-5.73h2.38l-5.1,11.74Z"/>
    </g>
    <path class="cls-2" d="M48.8,1.72c9-2.75,14.65,2.6,11.27,11.98"/>
    <path class="cls-3" d="M50.06,4.84c2.39-1.03,9.22-1.33,6.9,7.04"/>
    <path class="cls-1" d="M51.52,7.61c.25-.27,3.75-1.05,2.81,2.52"/>
  </g>
</svg>